<?xml version="1.0" encoding="UTF-8" standalone="no"?>
<svg
   xmlns:dc="http://purl.org/dc/elements/1.1/"
   xmlns:cc="http://creativecommons.org/ns#"
   xmlns:rdf="http://www.w3.org/1999/02/22-rdf-syntax-ns#"
   xmlns:svg="http://www.w3.org/2000/svg"
   xmlns="http://www.w3.org/2000/svg"
   viewBox="0 0 2932.4268 976.21332"
   height="976.21332"
   width="2932.4268"
   xml:space="preserve"
   id="svg2"
   version="1.1"><metadata
     id="metadata8"><rdf:RDF><cc:Work
         rdf:about=""><dc:format>image/svg+xml</dc:format><dc:type
           rdf:resource="http://purl.org/dc/dcmitype/StillImage" /></cc:Work></rdf:RDF></metadata><defs
     id="defs6" /><g
     transform="matrix(1.3333333,0,0,-1.3333333,0,976.21333)"
     id="g10"><g
       transform="scale(0.1)"
       id="g12"><path
         id="path14"
         style="fill:#100f0d;fill-opacity:1;fill-rule:nonzero;stroke:none"
         d="m 5089.82,5284.82 c -369.22,279.33 -830.79,441.2 -1337.89,441.2 -1197.11,0 -2167.55,-929.16 -2167.55,-2075.33 0,-1146.18 970.44,-2075.33 2167.55,-2075.33 491.45,0 991.58,192.38 1355.17,456.29 L 5430.32,1567 c -466.63,-347.02 -1041.78,-545.39 -1678.39,-545.39 -1522.36,0 -2756.481,1181.61 -2756.481,2639.2 0,1457.59 1234.121,2639.21 2756.481,2639.21 622.73,0 1207.05,-203.45 1668.58,-536.89 l -330.69,-478.31" /><path
         id="path16"
         style="fill:#ec4c31;fill-opacity:1;fill-rule:nonzero;stroke:none"
         d="m 4067.23,3813.08 -782.41,162.72 c 0,0 1606.52,1019.56 1604.79,1027.74 l 0.06,-0.04 c -8.56,-1.67 -359.37,-1815.53 -359.37,-1815.53 -2.58,-1.75 -465.58,623.34 -463.01,625.08 l -0.06,0.03" /><path
         id="path18"
         style="fill:#100f0d;fill-opacity:1;fill-rule:nonzero;stroke:none"
         d="m 9066.21,5615.05 c -130.01,108.87 -293.3,184.45 -511.02,184.45 -387.04,0 -698.47,-329.57 -698.47,-737.79 0,-405.18 311.43,-734.75 722.67,-734.75 190.5,0 368.9,63.47 489.84,178.37 l 178.4,-199.55 c -178.4,-175.37 -399.13,-247.95 -686.38,-247.95 -562.42,0 -994.82,450.55 -994.82,1003.88 0,556.38 441.48,1006.92 988.76,1006.92 308.42,0 523.11,-87.69 692.44,-241.91 l -181.42,-211.67" /><path
         id="path20"
         style="fill:#100f0d;fill-opacity:1;fill-rule:nonzero;stroke:none"
         d="m 11140.5,5058.67 c 0,408.22 -314.5,740.83 -704.5,740.83 -387.1,0 -701.55,-329.57 -701.55,-737.79 0,-405.18 314.45,-734.75 701.55,-734.75 390,0 704.5,329.57 704.5,731.71 z m 290.3,0 c 0,-553.34 -447.6,-1000.84 -994.8,-1000.84 -547.34,0 -991.83,450.55 -991.83,1003.88 0,556.38 444.49,1006.92 991.83,1006.92 547.2,0 994.8,-453.58 994.8,-1009.96" /><path
         id="path22"
         style="fill:#100f0d;fill-opacity:1;fill-rule:nonzero;stroke:none"
         d="M 12144.4,5596.9 V 4094.12 h -272.2 v 1938.22 h 314.5 l 698.5,-1109.72 695.4,1109.72 h 278.2 V 4094.12 h -272.1 V 5596.9 L 12867,4475.12 12144.4,5596.9" /><path
         id="path24"
         style="fill:#100f0d;fill-opacity:1;fill-rule:nonzero;stroke:none"
         d="m 14681.2,5787.43 v -740.82 h 429.4 c 260,0 432.4,148.15 432.4,371.88 0,223.77 -172.4,368.94 -432.4,368.94 z m -272.1,244.91 h 677.3 c 447.5,0 743.8,-241.91 743.8,-613.85 0,-371.88 -299.3,-616.8 -749.8,-616.8 h -399.2 v -707.57 h -272.1 v 1938.22" /><g
         transform="scale(1.08545)"
         id="g26"><path
           id="path28"
           style="fill:#100f0d;fill-opacity:1;fill-rule:nonzero;stroke:none"
           d="m 15408.6,5290.05 -334.3,-835.72 h 671.4 z m 426.2,-1061.35 h -852.4 l -183.9,-456.87 h -264.6 l 735.4,1785.64 h 295.2 L 16300,3771.83 h -281.4 l -183.8,456.87" /></g><g
         transform="scale(1.18377)"
         id="g30"><path
           id="path32"
           style="fill:#100f0d;fill-opacity:1;fill-rule:nonzero;stroke:none"
           d="m 16110.9,4715.28 c -74,104.74 -229.8,194.14 -406.1,194.14 -196.7,0 -319.3,-86.87 -319.3,-219.7 0,-360.14 914.5,-196.65 914.5,-779.06 0,-288.64 -235,-482.76 -600.3,-482.76 -306.5,0 -505.7,120.05 -618.1,278.43 l 166,155.81 c 109.8,-143.05 268.2,-217.12 454.6,-217.12 224.8,0 352.6,97.06 352.6,250.32 0,398.5 -914.5,222.21 -914.5,786.72 0,263.11 232.5,444.48 572.2,444.48 255.4,0 462.3,-112.39 561.9,-252.88 l -163.5,-158.38" /></g><g
         transform="scale(1.2882)"
         id="g34"><path
           id="path36"
           style="fill:#100f0d;fill-opacity:1;fill-rule:nonzero;stroke:none"
           d="m 16126.3,4333.01 c -68,96.25 -211.3,178.4 -373.2,178.4 -180.8,0 -293.4,-79.83 -293.4,-201.89 0,-330.94 840.3,-180.71 840.3,-715.9 0,-265.24 -216,-443.62 -551.6,-443.62 -281.7,0 -464.8,110.32 -568,255.85 l 152.5,143.19 c 101,-131.46 246.5,-199.53 417.9,-199.53 206.5,0 323.8,89.2 323.8,230.03 0,366.19 -840.3,204.2 -840.3,722.94 0,241.78 213.7,408.45 525.8,408.45 234.7,0 424.9,-103.28 516.5,-232.38 l -150.3,-145.54" /></g><path
         id="path38"
         style="fill:#100f0d;fill-opacity:1;fill-rule:nonzero;stroke:none"
         d="M 7947.44,2704.64 V 1201.86 h -272.16 v 1938.22 h 314.48 l 698.48,-1109.71 695.46,1109.71 h 278.19 V 1201.86 H 9389.75 V 2704.64 L 8670.09,1582.87 7947.44,2704.64" /><path
         id="path40"
         style="fill:#100f0d;fill-opacity:1;fill-rule:nonzero;stroke:none"
         d="m 10212.1,3140.08 h 272.2 V 1201.86 h -272.2 v 1938.22" /><path
         id="path42"
         style="fill:#100f0d;fill-opacity:1;fill-rule:nonzero;stroke:none"
         d="M 11300.7,2695.57 V 1201.86 h -275.2 v 1938.22 h 296.3 l 1073.5,-1502.83 v 1502.83 h 272.1 V 1201.86 h -296.3 l -1070.4,1493.71" /><path
         id="path44"
         style="fill:#100f0d;fill-opacity:1;fill-rule:nonzero;stroke:none"
         d="m 13208.6,3140.08 h 272.1 V 1201.86 h -272.1 v 1938.22" /><path
         id="path46"
         style="fill:#100f0d;fill-opacity:1;fill-rule:nonzero;stroke:none"
         d="M 14297.1,2695.57 V 1201.86 h -275.2 v 1938.22 h 296.4 l 1073.4,-1502.83 v 1502.83 h 272.1 V 1201.86 h -296.3 l -1070.4,1493.71" /><g
         transform="scale(1.0912)"
         id="g48"><path
           id="path50"
           style="fill:#100f0d;fill-opacity:1;fill-rule:nonzero;stroke:none"
           d="m 15662.6,1068.16 c -515.4,0 -911.6,412.89 -911.6,919.99 0,509.88 404.6,922.76 906.1,922.76 282.7,0 479.4,-80.35 634.6,-221.7 l -166.3,-193.98 c -119.1,99.79 -268.8,169.04 -468.3,169.04 -354.7,0 -640.1,-302.03 -640.1,-676.12 0,-371.33 285.4,-673.36 662.3,-673.36 138.5,0 263.2,30.49 371.3,83.12 v 576.39 h 249.4 v -734.33 c -163.5,-113.61 -371.3,-171.81 -637.4,-171.81" /></g></g></g></svg>